<svg width="1920" height="160" viewBox="0 0 1920 160" fill="none" xmlns="http://www.w3.org/2000/svg">
<g clip-path="url(#clip0_8355_89122)">
<path d="M307.5 6.07772C303.116 3.62919 298.947 2.20814 293.5 2.20428L146.5 2.20428L0 2.20428L0 22.0254L347.5 22.0254C342.053 22.0215 339 20.6601 333.5 18.3816L307.5 6.07772Z" fill="#192561" fill-opacity="0.2"/>
<path d="M1612.06 5.91836C1616.45 3.44146 1620.62 2.00394 1626.08 2.00004L1773.29 2.00004L1920 2.00004V22.0508L1572 22.0508C1577.45 22.0469 1580.51 20.6696 1586.02 18.3648L1612.06 5.91836Z" fill="#192561" fill-opacity="0.2"/>
<rect y="22.2144" width="1920" height="2.67003" fill="#192561" fill-opacity="0.2"/>
<path fill-rule="evenodd" clip-rule="evenodd" d="M0.00414636 0H193.823C195.745 0 197.655 0.298596 199.484 0.884127L292.967 0.884123H292.968C297.987 0.886752 302.92 1.78615 307.055 3.49465L307.065 3.49852L336.799 15.5115L336.807 15.5145L336.815 15.5176C340.402 17.001 344.809 17.826 349.384 17.8284L960 17.8284L960.004 17.8283L1570.62 17.8285C1575.19 17.8261 1579.6 17.0011 1583.19 15.5177L1583.2 15.5146L1583.2 15.5116L1612.94 3.49861L1612.95 3.49474C1617.08 1.78624 1622.02 0.886843 1627.04 0.884215H1627.04L1720.52 0.884218C1722.35 0.298627 1724.26 0 1726.18 0H1920V0.884225H1920V4.88422L1627.04 4.88421L1627.04 4.88421C1622.46 4.88674 1618.05 5.71173 1614.47 7.19502L1614.46 7.19814L1614.45 7.2012L1587.72 18H1646.48L1663.69 12.6964C1665.89 12.0205 1668.17 11.6769 1670.47 11.6769H1920V24H1920V160H0V24V18V11.6769H249.537C251.833 11.6769 254.115 12.0205 256.309 12.6964L273.524 18H332.281L305.551 7.20111L305.544 7.19805L305.536 7.19493C301.949 5.71164 297.542 4.88664 292.967 4.88412L292.966 4.88412L0.000480862 4.88413L0.000479954 0.884133H0.00414636V0ZM301.639 7.1857L315.343 12.8238C315.999 13.0935 315.822 14.0633 315.117 14.0676C315.031 14.0681 314.945 14.0514 314.865 14.0185L301.161 8.38039C300.505 8.11072 300.682 7.14089 301.387 7.13659C301.474 7.13607 301.559 7.15276 301.639 7.1857ZM1618.36 7.18573L1604.66 12.8238C1604.01 13.0935 1604.18 14.0633 1604.89 14.0676C1604.97 14.0682 1605.06 14.0515 1605.14 14.0185L1618.84 8.38042C1619.5 8.11075 1619.32 7.14092 1618.62 7.13662C1618.53 7.1361 1618.45 7.15279 1618.36 7.18573Z" fill="#05A0FA"/>
</g>
<defs>
<clipPath id="clip0_8355_89122">
<rect width="1920" height="160" fill="white"/>
</clipPath>
</defs>
</svg>
