<svg width="1920" height="159" viewBox="0 0 1920 159" fill="none" xmlns="http://www.w3.org/2000/svg">
<g clip-path="url(#clip0_8395_89159)">
<path fill-rule="evenodd" clip-rule="evenodd" d="M1670.47 6.32309H1920V-5H1923V331L1920 331H1921V313.556H1921V309.556H1921V308.6H1920V308.001H1726.18C1724.24 308.001 1722.32 308.306 1720.47 308.904L1627.04 308.904H1627.04C1622.01 308.907 1617.08 309.811 1612.94 311.528L1612.94 311.531L1583.2 323.596L1583.19 323.599L1583.19 323.602C1579.6 325.092 1575.19 325.92 1570.62 325.923L960.004 325.923H960L349.384 325.923C344.81 325.92 340.404 325.092 336.817 323.602L336.81 323.599L336.802 323.596L307.067 311.531L307.062 311.528C302.924 309.811 297.989 308.907 292.968 308.904H292.967L199.531 308.904C197.687 308.306 195.761 308.001 193.821 308.001H0.0039022V308.904H0.000235796L0.00023675 312.904L292.966 312.904H292.967C297.541 312.907 301.947 313.735 305.533 315.225L305.54 315.228L305.548 315.231L334.553 327H275.429C275.091 326.622 274.631 326.317 274.042 326.135L273 325.812L256.322 320.652C254.12 319.97 251.828 319.624 249.523 319.624H0V331H-1V15.3636L-0.999642 15.3636L-0.999642 16.4434H-0.995854V17.3992H0V6.32309H249.537C251.833 6.32309 254.115 5.97946 256.309 5.30363L273.524 0H332.281L305.551 10.7989L305.543 10.802L305.536 10.8051C301.949 12.2884 297.542 13.1134 292.967 13.1159L292.966 13.1159L0.000240803 13.1159L0.000239849 17.1159H0.00390625V18.0001H193.822C195.745 18.0001 197.655 17.7015 199.484 17.1159L292.967 17.1159H292.968C297.987 17.1133 302.919 16.2139 307.055 14.5054L307.064 14.5015L336.799 2.48859L336.807 2.48554L336.814 2.48242C340.401 0.99902 344.809 0.174006 349.384 0.17161L960 0.171726H960.004L1570.62 0.17161C1575.19 0.174006 1579.6 0.99902 1583.19 2.48242L1583.2 2.48554L1583.2 2.48859L1612.94 14.5015L1612.95 14.5054C1617.08 16.2139 1622.02 17.1133 1627.04 17.1159H1627.04L1720.52 17.1159C1722.35 17.7015 1724.26 18.0001 1726.18 18.0001H1920V17.1159H1920V13.1159L1627.04 13.1159L1627.04 13.1159C1622.46 13.1134 1618.06 12.2884 1614.47 10.8051L1614.46 10.802L1614.45 10.7989L1587.72 0H1646.48L1663.69 5.30363C1665.89 5.97946 1668.17 6.32309 1670.47 6.32309ZM1920 319.625H1670.48C1668.18 319.625 1665.88 319.971 1663.68 320.652L1645.96 326.135C1645.37 326.317 1644.91 326.622 1644.58 327H1585.45L1614.46 315.231L1614.46 315.228L1614.47 315.225C1618.06 313.735 1622.46 312.907 1627.04 312.904H1627.04L1920 312.904V319.625ZM1644.58 331H1567.81L1568.16 330.883L960.502 330.883L352.833 330.883L353.183 331H275.425L275.424 331L1644.58 331ZM1566.81 -5H352.183L351.834 -4.88423L959.502 -4.88411V-4.88369L1567.16 -4.88381L1566.81 -5ZM301.639 10.8144L315.343 5.17628C315.999 4.9066 315.822 3.93677 315.116 3.93247C315.03 3.93195 314.945 3.94864 314.865 3.98158L301.16 9.61969C300.505 9.88936 300.682 10.8592 301.387 10.8635C301.473 10.864 301.559 10.8473 301.639 10.8144ZM1618.36 10.8144L1604.66 5.17628C1604.01 4.9066 1604.18 3.93677 1604.89 3.93247C1604.97 3.93195 1605.06 3.94864 1605.14 3.98158L1618.84 9.61969C1619.5 9.88936 1619.32 10.8592 1618.62 10.8635C1618.53 10.864 1618.45 10.8473 1618.36 10.8144ZM301.64 315.224L315.346 320.887C316.003 321.159 315.825 322.131 315.117 322.135C315.031 322.136 314.944 322.119 314.864 322.086L301.157 316.422C300.5 316.151 300.679 315.178 301.386 315.174C301.473 315.173 301.559 315.19 301.64 315.224ZM1618.36 315.224L1604.66 320.887C1604 321.159 1604.18 322.131 1604.89 322.135C1604.97 322.136 1605.06 322.119 1605.14 322.086L1618.85 316.422C1619.5 316.151 1619.33 315.178 1618.62 315.174C1618.53 315.173 1618.44 315.19 1618.36 315.224Z" fill="#192561" fill-opacity="0.8"/>
<path d="M195 17.9999H0L0.5 308H195C196 308 197 308 198.5 308.5C199.7 308.9 200.667 309 201 309H298C300.8 309 305.167 310.667 307 311.5L339.5 324.5C341.5 325.3 346.667 325.833 349 326H1572.5C1574.5 326 1579.33 324.667 1581.5 324C1592.17 319.833 1613.9 311.3 1615.5 310.5C1617.1 309.7 1624.64 309.167 1628.21 309C1658.81 309.167 1720.1 309.4 1720.5 309C1720.9 308.6 1724.33 308.167 1726 308H1920V18C1854.83 18.1667 1724.5 18.4 1724.5 18C1724.5 17.6 1721.83 17.1667 1720.5 17H1625C1622.6 17 1617 15.6667 1614.5 15L1610.5 13.5C1601.17 9.83333 1582 2.3 1580 1.5C1578 0.7 1572.5 0.166667 1570 0H352C347.2 0 341.667 1 339.5 1.5C328.833 6 306.7 15.2 303.5 16C300.3 16.8 296.5 16.9999 295 16.9999C263.333 16.8332 200 16.5999 200 16.9999C200 17.3999 196.667 17.8332 195 17.9999Z" fill="black"/>
</g>
<defs>
<clipPath id="clip0_8395_89159">
<rect width="1920" height="159" fill="white"/>
</clipPath>
</defs>
</svg>
