<svg data-v-2c584e4b="" xmlns="http://www.w3.org/2000/svg" class="svg-list"><symbol data-v-2c584e4b="" id="social-icon-sina" viewBox="0 0 34.94 27.91"><path data-v-2c584e4b="" d="M25.87,13.59c-1.36-.27-.7-1-.7-1s1.33-2.19-.26-3.78c-2-2-6.77.25-6.77.25-1.83.57-1.35-.26-1.09-1.67,0-1.66-.57-4.47-5.45-2.81s-9.06,7.51-9.06,7.51C-.37,16,0,19,0,19c.72,6.63,7.77,8.45,13.24,8.88,5.77.45,13.55-2,15.9-7S27.24,13.86,25.87,13.59ZM13.69,26C8,26.26,3.34,23.39,3.34,19.57S8,12.68,13.69,12.42s10.36,2.1,10.36,5.91S19.42,25.73,13.69,26Z"></path><path data-v-2c584e4b="" d="M12.55,14.94A5.4,5.4,0,0,0,7.46,21,3,3,0,0,0,9,23.58,6.68,6.68,0,0,0,17.59,22C19.34,19.77,18.31,14.27,12.55,14.94ZM11.1,22.5a1.56,1.56,0,0,1-1.94-1.39A2.06,2.06,0,0,1,11,19.17c1.24-.12,2,.59,2,1.49A2.08,2.08,0,0,1,11.1,22.5Zm3.39-2.89a.65.65,0,0,1-1-.09.83.83,0,0,1,.24-1.09.69.69,0,0,1,1.06.09A.89.89,0,0,1,14.49,19.61Z"></path><path data-v-2c584e4b="" d="M28.68,11.25a.93.93,0,0,0,.92-.79.31.31,0,0,0,0-.1c.7-6.32-5.18-5.23-5.18-5.23a.95.95,0,0,0,0,1.89c4.23-.93,3.3,3.29,3.3,3.29A.93.93,0,0,0,28.68,11.25Z"></path><path data-v-2c584e4b="" d="M28,.22a11.9,11.9,0,0,0-4.71.05c-.05,0-.09,0-.13.06a0,0,0,0,0,0,0,1.39,1.39,0,0,0-1,1.33,1.37,1.37,0,0,0,1.37,1.37,6.87,6.87,0,0,0,1.24-.29,7.22,7.22,0,0,1,6.8,3.36A6.15,6.15,0,0,1,32,10.68,4,4,0,0,0,31.68,12a1.25,1.25,0,0,0,1.37,1.23c.63,0,1.16-.09,1.32-1.16h0C36.62,4.59,31.63,1.07,28,.22Z"></path></symbol><symbol data-v-2c584e4b="" id="social-icon-wechat" viewBox="0 0 34.13 27.8"><path data-v-2c584e4b="" d="M23.1,8.41a11.31,11.31,0,0,1,1.17.07C23.22,3.62,18,0,12.08,0,5.44,0,0,4.53,0,10.27c0,3.32,1.81,6,4.83,8.16l-1.2,3.63,4.22-2.12a20.56,20.56,0,0,0,4.23.61c.38,0,.75,0,1.13-.05A8.85,8.85,0,0,1,12.83,18C12.83,12.69,17.37,8.41,23.1,8.41ZM16.61,5.14a1.41,1.41,0,0,1,1.51,1.5,1.43,1.43,0,0,1-1.51,1.52,1.7,1.7,0,0,1-1.82-1.52A1.69,1.69,0,0,1,16.61,5.14Zm-8.45,3A1.7,1.7,0,0,1,6.34,6.64a1.69,1.69,0,0,1,1.82-1.5,1.41,1.41,0,0,1,1.5,1.5A1.43,1.43,0,0,1,8.16,8.16Z"></path><path data-v-2c584e4b="" d="M34.13,17.83c0-4.83-4.84-8.77-10.26-8.77-5.75,0-10.28,3.94-10.28,8.77s4.53,8.76,10.28,8.76a15.3,15.3,0,0,0,3.62-.6L30.8,27.8l-.9-3C32.32,23,34.13,20.55,34.13,17.83ZM20.54,16.31a1.29,1.29,0,0,1-1.21-1.2,1.3,1.3,0,0,1,1.21-1.21,1.38,1.38,0,0,1,1.51,1.21A1.37,1.37,0,0,1,20.54,16.31Zm6.64,0a1.28,1.28,0,0,1-1.2-1.2,1.29,1.29,0,0,1,1.2-1.21,1.38,1.38,0,0,1,1.51,1.21A1.37,1.37,0,0,1,27.18,16.31Z"></path></symbol></svg>